<?xml version="1.0" encoding="UTF-8"?>
<svg width="185px" height="184px" viewBox="0 0 185 184" version="1.1" xmlns="http://www.w3.org/2000/svg" xmlns:xlink="http://www.w3.org/1999/xlink">
    <title>Shape</title>
    <g id="Page-1" stroke="none" stroke-width="1" fill="none" fill-rule="evenodd">
        <g id="Artboard" transform="translate(-102.000000, -82.000000)" fill="#FFFFFF" fill-rule="nonzero">
            <g id="linkedin-icon" transform="translate(102.940161, 82.246087)">
                <path d="M183.183961,182.883719 L145.252767,182.883719 L145.252767,123.48059 C145.252767,109.31535 144.999892,91.0803201 125.524595,91.0803201 C105.768765,91.0803201 102.746123,106.513912 102.746123,122.449313 L102.746123,182.879768 L64.8149283,182.879768 L64.8149283,60.7228478 L101.228875,60.7228478 L101.228875,77.4168891 L101.738575,77.4168891 C109.163585,64.7213298 122.969476,57.1387799 137.666528,57.6843347 C176.111374,57.6843347 183.199766,82.9723501 183.199766,115.870478 L183.183961,182.883719 Z M22.0158976,44.0248557 C9.85903582,44.027037 0.00218322441,34.1735068 3.6214351e-07,22.0163791 C-0.00218107559,9.85925152 9.85113372,0.00218332452 22.0079955,3.62201945e-07 C34.1648574,-0.00218127548 44.0217102,9.85134882 44.0238933,22.0084764 C44.0249406,27.8465351 41.7068365,33.4458985 37.5795368,37.5747704 C33.4522371,41.7036424 27.8538287,44.0238071 22.0158976,44.0248557 M40.9814947,182.883719 L3.01078892,182.883719 L3.01078892,60.7228478 L40.9814947,60.7228478 L40.9814947,182.883719 Z" id="Shape"></path>
            </g>
        </g>
    </g>
</svg>