<svg id="color" enable-background="new 0 0 24 24" height="512" viewBox="0 0 24 24" width="512" xmlns="http://www.w3.org/2000/svg"><path d="m22 2.75c0-1.519-1.231-2.75-2.75-2.75h-14.5c-1.519 0-2.75 1.231-2.75 2.75v18.5c0 1.519 1.231 2.75 2.75 2.75h14.5c1.519 0 2.75-1.231 2.75-2.75z" fill="#eceff1"/><path d="m12 0h-7.25c-1.519 0-2.75 1.231-2.75 2.75v18.5c0 1.519 1.231 2.75 2.75 2.75h7.25z" fill="#cdd0d2"/><g fill="#607d8b"><path d="m8 20c0 .552-.447 1-1 1s-1-.448-1-1 .447-1 1-1 1 .448 1 1z"/><path d="m11.25 21h-1.5c-.414 0-.75-.336-.75-.75s.336-.75.75-.75h1.5c.138 0 .25-.112.25-.25v-3.5c0-.414.336-.75.75-.75s.75.336.75.75v3.5c0 .965-.785 1.75-1.75 1.75z"/><path d="m16.125 21h-1.375c-.414 0-.75-.336-.75-.75s.336-.75.75-.75h1.375c.207 0 .375-.168.375-.375s-.168-.375-.375-.375h-.25c-1.034 0-1.875-.841-1.875-1.875s.841-1.875 1.875-1.875h1.375c.414 0 .75.336.75.75s-.336.75-.75.75h-1.375c-.207 0-.375.168-.375.375s.168.375.375.375h.25c1.034 0 1.875.841 1.875 1.875s-.841 1.875-1.875 1.875z"/></g><path d="m7 19c-.553 0-1 .448-1 1s.447 1 1 1 1-.448 1-1-.447-1-1-1z" fill="#546d79"/><path d="m13 18h-1.5v1.25c0 .138-.112.25-.25.25h-1.5c-.414 0-.75.336-.75.75s.336.75.75.75h1.5c.965 0 1.75-.785 1.75-1.75z" fill="#546d79"/><path d="m17.624 18h-3.248c.342.455.887.75 1.499.75h.25c.207 0 .375.168.375.375s-.168.375-.375.375h-1.375c-.414 0-.75.336-.75.75s.336.75.75.75h1.375c1.034 0 1.875-.841 1.875-1.875 0-.422-.14-.811-.376-1.125z" fill="#546d79"/></svg>