<?xml version="1.0" encoding="UTF-8"?>
<svg width="157px" height="112px" viewBox="0 0 157 112" version="1.1" xmlns="http://www.w3.org/2000/svg" xmlns:xlink="http://www.w3.org/1999/xlink">
    <title>Shape</title>
    <g id="Page-1" stroke="none" stroke-width="1" fill="none" fill-rule="evenodd">
        <g id="Artboard" transform="translate(-42.000000, -129.000000)" fill="#FFFFFF">
            <g id="up" transform="translate(42.000000, 129.000000)">
                <path d="M121.12545,63.1095151 C113.922205,63.1095151 107.173217,60.0594923 101.040725,55.0950934 L102.533289,48.0865303 L102.598183,47.8269539 C103.928512,40.3641321 108.146629,27.8395702 121.12545,27.8395702 C130.859565,27.8395702 138.776646,35.7566507 138.776646,45.4907662 C138.744199,55.1924346 130.827118,63.1095151 121.12545,63.1095151 L121.12545,63.1095151 Z M121.12545,9.96124481 C104.545007,9.96124481 91.6959736,20.7336659 86.4719987,38.449756 C78.4900238,26.476794 72.4548722,12.1027502 68.9181436,0 L51.0722653,0 L51.0722653,46.4317307 C51.0722653,55.5817992 43.6094434,63.0446211 34.4593749,63.0446211 C25.3093063,63.0446211 17.8464845,55.5817992 17.8464845,46.4317307 L17.8464845,0 L0.000200799007,0 L0.000200799007,46.4317307 C-0.0642879204,65.4457029 15.4129556,81.052735 34.4269279,81.052735 C53.4409,81.052735 68.9181436,65.4457029 68.9181436,46.4317307 L68.9181436,38.6444384 C72.3899781,45.8801308 76.6405419,53.1807174 81.799623,59.6701277 L70.8649667,111.066258 L89.1326567,111.066258 L97.0497369,73.7845949 C103.993407,78.2298413 111.975381,81.0202876 121.12545,81.0202876 C140.691022,81.0202876 156.622524,64.9914442 156.622524,45.4258721 C156.622524,25.8927471 140.691022,9.96124481 121.12545,9.96124481 L121.12545,9.96124481 Z" id="Shape"></path>
            </g>
        </g>
    </g>
</svg>